<svg width="1024" height="1024" viewBox="0 0 1024 1024" fill="none" xmlns="http://www.w3.org/2000/svg">
<path d="M512.673 542.99C463.83 542.99 421.612 533.037 386.02 513.133C350.83 493.228 323.762 465.48 304.857 429.888C285.952 394.296 276.5 351.238 276.5 300.714V251.653C276.5 241.313 279.221 233.422 284.663 227.98C290.105 221.993 297.452 219 307.02 219C317 219 324.762 221.993 330.306 227.98C335.85 233.422 338.571 241.313 338.571 251.653V303.163C338.571 362.939 354.082 408.738 385.102 440.49C416.122 472.16 460.231 487.965 517.367 487.965C574.966 487.965 619.905 472.16 651.612 440.49C683.721 408.184 699.775 362.395 699.775 303.163V251.653C699.775 241.313 702.496 233.422 707.939 227.98C713.925 221.993 721.544 219 731.796 219C741.592 219 748.939 221.993 753.836 227.98C759.279 233.422 762 251.653 762 251.653V300.714C762 349.605 752.204 392.782 732.612 428.724C713.02 464.163 684.721 492.918 647.714 512.51C611.252 532.102 566.258 542.99 512.673 542.99Z" fill="#0066FF"/>
<path d="M513.327 481.786C562.17 481.786 604.388 491.738 639.98 511.643C675.17 531.548 702.238 559.296 721.143 594.888C740.048 630.48 749.5 673.517 749.5 724.041L749.5 773.102C749.5 783.442 746.779 791.333 741.337 796.776C735.895 802.762 728.548 805.755 718.98 805.755C709 805.755 701.238 802.762 695.694 796.776C690.15 791.333 687.429 783.442 687.429 773.102L687.429 721.592C687.429 661.816 671.918 616.037 640.898 584.265C609.878 552.616 565.769 536.81 508.633 536.81C451.034 536.81 406.095 552.616 374.388 584.265C342.279 616.592 326.225 662.361 326.225 721.592L326.225 773.102C326.225 783.442 323.504 791.333 318.061 796.776C312.075 802.762 304.456 805.755 294.204 805.755C284.408 805.755 277.061 802.762 272.164 796.776C266.721 791.333 264 773.102 264 773.102L264 724.041C264 675.15 273.796 631.973 293.388 596.051C312.98 560.592 341.279 531.837 378.286 512.245C414.748 492.653 459.742 481.786 513.327 481.786Z" fill="#0066FF"/>
</svg>
